<svg
  xmlns="http://www.w3.org/2000/svg"
  width="186.75035"
  height="107.03245"
  viewBox="0 0 186.75035 107.03245"
  aria-hidden="true"
>
  <g transform="translate(-392.80051,-526.46417)">
    <path
      d="M 0,0 C -0.088,0.391 -0.151,0.778 -0.268,1.164 -0.404,1.611 -0.564,2.052 -0.749,2.481 -1.004,3.076 -1.301,3.656 -1.646,4.203 -1.917,4.634 -2.28,5.096 -2.675,5.41 -2.226,3.539 -1.99,1.765 -2.421,-0.145 -2.679,-1.284 -3.128,-2.419 -3.77,-3.397 c -0.725,-1.107 -1.536,-2.228 -2.389,-3.237 -0.588,-0.697 -1.232,-1.345 -1.931,-1.93 -2.207,-1.85 -4.778,-3.198 -7.087,-4.907 -4.236,-3.136 -7.646,-7.803 -9.193,-12.854 -1.281,-4.185 -1.221,-8.851 0.604,-12.831 1.824,-3.979 5.509,-7.164 9.814,-7.96 -0.536,0.1 -1.308,1.029 -1.676,1.406 -0.545,0.558 -1.031,1.174 -1.449,1.834 -0.818,1.29 -1.417,2.771 -1.578,4.295 -0.139,1.316 -0.22,2.696 -0.199,4.018 0.066,4.19 1.527,8.576 4.141,11.866 1.753,2.206 4.123,4.095 6.423,5.698 2.201,1.534 4.125,3.466 5.664,5.664 1.256,1.793 2.183,3.654 2.641,5.801 C 0.473,-4.388 0.483,-2.143 0,0"
      fill="#66fcf0"
      transform="matrix(1.3333333,0,0,-1.3333333,480.5979,558.06214)"
    />
    <path
      d="m 0,0 h -1.683 -5.459 c -2.304,0 -4.608,-0.002 -6.912,-0.003 0.795,0.989 1.59,1.978 2.383,2.968 0.473,0.59 0.945,1.18 1.418,1.768 0.512,0.639 1.023,1.277 1.534,1.914 0.536,0.669 1.073,1.338 1.609,2.007 0.547,0.682 1.094,1.365 1.641,2.047 0.544,0.679 1.088,1.358 1.633,2.037 0.527,0.658 1.055,1.316 1.582,1.974 0.497,0.621 0.995,1.241 1.492,1.861 0.452,0.565 0.906,1.13 1.359,1.695 0.394,0.493 0.789,0.985 1.184,1.478 0.323,0.403 0.646,0.806 0.969,1.209 0.712,0.887 1.485,1.647 1.089,2.927 -0.178,0.576 -0.556,1.069 -1.037,1.431 -1.266,0.953 -2.755,0.807 -4.189,0.807 h -2.716 -10.683 -6.006 c 0,-2.527 2.049,-4.575 4.576,-4.575 h 1.708 6.308 c 1.747,0 3.495,0.004 5.242,0.007 -1.417,-1.778 -2.83,-3.558 -4.274,-5.312 -1.195,-1.491 -2.391,-2.981 -3.585,-4.472 -0.976,-1.218 -1.941,-2.444 -2.921,-3.658 -1.029,-1.273 -2.057,-2.547 -3.085,-3.82 l -1.543,-1.91 c -0.235,-0.291 -0.468,-0.584 -0.703,-0.876 -0.442,-0.548 -0.948,-1.073 -1.314,-1.68 -0.185,-0.304 -0.321,-0.633 -0.396,-0.968 -0.163,-0.717 -0.051,-1.467 0.447,-2.088 0.459,-0.572 1.138,-0.937 1.845,-1.127 0.493,-0.133 0.981,-0.195 1.487,-0.197 3.223,-0.012 6.446,-0.015 9.669,-0.018 3.969,-0.004 7.937,0 11.906,-0.002 C 4.576,-2.049 2.527,0 0,0"
      fill="#66fcf0"
      transform="matrix(1.3333333,0,0,-1.3333333,513.09203,591.90654)"
    />
    <path
      d="m 0,0 c -1.294,2.375 -3.08,4.218 -5.357,5.531 -2.279,1.312 -4.904,1.969 -7.877,1.969 -2.934,0 -5.57,-0.666 -7.905,-1.998 -2.337,-1.332 -4.171,-3.176 -5.503,-5.531 -1.331,-2.355 -1.998,-5.058 -1.998,-8.108 0,-3.051 0.685,-5.754 2.057,-8.108 1.37,-2.357 3.3,-4.209 5.791,-5.561 2.491,-1.351 5.376,-2.027 8.658,-2.027 2.549,0 4.856,0.425 6.922,1.274 2.649,1.09 5.804,3.487 5.789,6.681 -0.002,0.263 -0.041,0.536 -0.093,0.794 -0.161,0.801 -0.552,1.546 -1.13,2.124 0.035,-0.035 -2.136,-2.161 -2.346,-2.348 -1.674,-1.489 -3.465,-2.679 -5.648,-3.266 -1.078,-0.29 -2.204,-0.394 -3.32,-0.394 -2.201,0 -4.15,0.444 -5.85,1.332 -1.699,0.888 -3.021,2.134 -3.966,3.736 -0.947,1.602 -1.419,3.426 -1.419,5.473 V -7.5 c 0,2.007 0.424,3.793 1.274,5.357 0.849,1.564 2.027,2.78 3.532,3.649 1.507,0.869 3.224,1.303 5.155,1.303 1.969,0 3.697,-0.434 5.184,-1.303 1.486,-0.869 2.654,-2.076 3.504,-3.62 0.643,-1.171 1.031,-2.465 1.165,-3.88 h -11.924 c -2.208,0 -3.997,-1.79 -3.997,-3.997 H 0.983 c 0.49,0 0.896,0.381 0.929,0.869 0.018,0.309 0.028,0.58 0.028,0.811 C 1.94,-5.146 1.293,-2.375 0,0"
      fill="#66fcf0"
      transform="matrix(1.3333333,0,0,-1.3333333,560.83803,566.65001)"
    />
    <path
      d="M 0,0 C -0.762,0.25 -1.528,0.474 -2.292,0.616 -3.211,0.787 -4.147,0.865 -5.082,0.845 -6.116,0.823 -7.147,0.681 -8.15,0.427 c -0.917,-0.233 -1.881,-0.519 -2.695,-1.012 -0.431,-0.263 -0.84,-0.591 -1.213,-0.931 -0.114,-0.104 -0.226,-0.212 -0.335,-0.323 -1.757,-1.795 -2.635,-4.199 -2.635,-7.211 v -2.722 h -5.212 c 0,-2.527 2.048,-4.575 4.575,-4.575 h 0.637 v -26.12 h 1.684 c 2.141,0 3.876,1.735 3.876,3.875 v 22.245 h 8.803 c 0,2.527 -2.048,4.575 -4.575,4.575 h -4.344 v 2.665 c 0,2.557 1.329,5.204 4.184,5.383 1.377,0.087 2.632,-0.545 4.029,-0.34 1.807,0.265 3.535,1.347 4.056,3.164 C 1.802,-0.627 0.904,-0.296 0,0"
      fill="#66fcf0"
      transform="matrix(1.3333333,0,0,-1.3333333,441.22083,541.38374)"
    />
    <path
      d="m 0,0 -9.288,9.288 c -1.693,1.693 -4.439,1.693 -6.132,0 l -0.169,-0.169 9.287,-9.288 c 1.694,-1.693 4.439,-1.693 6.133,0 z"
      fill="#66fcf0"
      transform="matrix(1.3333333,0,0,-1.3333333,463.85696,569.09467)"
    />
  </g>
</svg>
