<svg
  xmlns="http://www.w3.org/2000/svg"
  viewBox="0 0 210 297"
  aria-hidden="true"
>
  <g>
    <path
      d="M 0,0 C -0.088,0.391 -0.151,0.778 -0.268,1.164 -0.404,1.611 -0.564,2.052 -0.749,2.481 -1.004,3.076 -1.301,3.656 -1.646,4.203 -1.917,4.634 -2.28,5.096 -2.675,5.41 -2.226,3.539 -1.99,1.765 -2.421,-0.145 -2.679,-1.284 -3.128,-2.419 -3.77,-3.397 c -0.725,-1.107 -1.536,-2.228 -2.389,-3.237 -0.588,-0.697 -1.232,-1.345 -1.931,-1.93 -2.207,-1.85 -4.778,-3.198 -7.087,-4.907 -4.236,-3.136 -7.646,-7.803 -9.193,-12.854 -1.281,-4.185 -1.221,-8.851 0.604,-12.831 1.824,-3.979 5.509,-7.164 9.814,-7.96 -0.536,0.1 -1.308,1.029 -1.676,1.406 -0.545,0.558 -1.031,1.174 -1.449,1.834 -0.818,1.29 -1.417,2.771 -1.578,4.295 -0.139,1.316 -0.22,2.696 -0.199,4.018 0.066,4.19 1.527,8.576 4.141,11.866 1.753,2.206 4.123,4.095 6.423,5.698 2.201,1.534 4.125,3.466 5.664,5.664 1.256,1.793 2.183,3.654 2.641,5.801 C 0.473,-4.388 0.483,-2.143 0,0"
      fill="#66fcf0"
      transform="matrix(5.4839277,0,0,-5.4839277,181.75159,34.385926)"
    />
    <path
      d="m 0,0 -9.288,9.288 c -1.693,1.693 -4.439,1.693 -6.132,0 l -0.169,-0.169 9.287,-9.288 c 1.694,-1.693 4.439,-1.693 6.133,0 z"
      fill="#66fcf0"
      transform="matrix(5.4839277,0,0,-5.4839277,112.89707,79.762071)"
    />
  </g>
</svg>
